<?xml version="1.0" encoding="utf-8"?>
<!-- Generator: Adobe Illustrator 16.0.0, SVG Export Plug-In . SVG Version: 6.00 Build 0)  -->
<!DOCTYPE svg PUBLIC "-//W3C//DTD SVG 1.1//EN" "http://www.w3.org/Graphics/SVG/1.1/DTD/svg11.dtd">
<svg version="1.1" id="Layer_1" xmlns="http://www.w3.org/2000/svg" xmlns:xlink="http://www.w3.org/1999/xlink" x="0px" y="0px"
	 width="313.22px" height="55.432px" viewBox="0 0 313.22 55.432" enable-background="new 0 0 313.22 55.432" xml:space="preserve">
<path d="M78.819,20.514c-0.118,0.312-0.413,0.56-0.473,0.56c-0.177,0-3.07-1.616-6.85-1.616c-2.244,0-3.897,0.87-3.897,2.984
	c0,3.356,5.314,3.108,9.507,6.029c2.304,1.617,3.957,3.978,3.957,7.585c0,5.719-3.839,10.008-10.098,10.008
	c-4.37,0-11.103-2.363-11.103-4.041c0-0.186,0.236-0.559,0.296-0.809l1.299-3.543c0.118-0.311,0.236-0.559,0.473-0.559
	s4.783,2.734,8.444,2.734c1.948,0,3.602-0.871,3.602-3.107c0-3.605-5.786-3.605-9.684-6.342c-1.771-1.242-3.484-3.418-3.484-7.024
	c0-5.657,4.074-10.133,10.452-10.133c3.603,0,9.212,1.616,9.212,3.046c0,0.187-0.177,0.56-0.295,0.808L78.819,20.514z"/>
<path fill="#F89838" stroke="#F89838" d="M83.884,16.967c-0.14-0.098-0.232-0.293-0.232-0.489c0-0.881,2.882-4.991,8.322-4.991
	c5.3,0,9.112,3.377,9.112,8.661c0,4.649-2.464,6.264-4.37,7.292c1.813,0.685,5.439,2.3,5.439,8.318
	c0,6.312-4.835,10.082-10.601,10.082c-3.533,0-8.834-1.566-8.834-2.691c0-0.197,0.047-0.295,0.094-0.49l0.93-3.475
	c0.046-0.146,0.279-0.488,0.512-0.488c0.558,0,3.114,2.006,6.788,2.006c3.254,0,5.067-1.957,5.067-5.285
	c0-4.502-3.627-4.893-5.766-4.893h-1.44c-0.791,0-0.931-0.148-0.931-0.98v-3.278c0-0.881,0.14-1.027,0.931-1.027h1.534
	c2.185,0,5.067-0.588,5.067-4.6c0-2.35-1.534-4.013-3.859-4.013c-2.976,0-4.184,2.984-4.788,2.984c-0.187,0-0.279-0.098-0.419-0.244
	L83.884,16.967z"/>
<path d="M124.348,45.816c-0.236,0.061-0.531,0.248-0.768,0.248c-0.531,0-1.417-2.176-1.712-3.73c-1.182,1.244-3.248,3.73-7.677,3.73
	c-5.433,0-8.858-3.73-8.858-9.574c0-10.505,10.748-10.505,15.413-10.505v-1.927c0-2.798-0.473-4.601-4.193-4.601
	c-3.307,0-6.555,1.865-7.322,1.865c-0.295,0-0.531-0.373-0.59-0.622l-1.182-3.792c-0.118-0.248-0.177-0.497-0.177-0.745
	c0-1.431,5.846-2.922,10.393-2.922c7.382,0,10.157,3.543,10.157,10.008v11.999c0,6.029,1.535,6.838,1.535,8.08
	c0,0.25-0.236,0.436-0.531,0.561L124.348,45.816z M120.747,31.082c-1.477,0-8.326-0.496-8.326,4.975
	c0,2.424,1.653,4.227,3.897,4.227c2.185,0,3.72-1.617,4.429-2.363V31.082z"/>
<path d="M152.316,45.876c-0.354,0.125-0.649,0.188-0.886,0.188c-0.768,0-1.24-1.182-1.89-3.668c-1.595,1.492-4.37,3.668-9.035,3.668
	c-3.247,0-7.677-1.555-7.677-9.076V15.604c0-0.871,0.414-0.933,1.122-1.119l4.961-1.057c0.177,0,0.768-0.187,0.944-0.187
	c0.354,0,0.473,0.248,0.473,1.305v19.768c0,2.363,0.295,5.223,3.307,5.223c2.48,0,4.429-1.367,5.196-1.928V15.604
	c0-0.871,0.414-0.933,1.122-1.119l4.961-1.057c0.177,0,0.768-0.187,1.004-0.187c0.295,0,0.413,0.248,0.413,1.305v19.395
	c0,8.766,1.122,8.268,1.122,9.699c0,0.311-0.236,0.559-0.649,0.684L152.316,45.876z"/>
<path d="M179.587,43.205c0.059,0.311,0.117,0.311,0.117,0.496c0,1.182-4.311,2.363-8.326,2.363c-7.617,0-7.617-6.279-7.617-11.998
	V20.079h-4.192c-0.709,0-0.827-0.187-0.827-0.87v-4.041c0-0.684,0.118-0.87,0.827-0.87h4.192V6.465c0-0.808,0.118-0.994,0.944-1.119
	l5.197-0.746c0.177,0,0.413-0.062,0.768-0.062c0.531,0,0.59,0.311,0.59,1.057v8.703h6.732c0.531,0,1.004,0,1.004,0.684
	c0,0.124,0,0.249-0.06,0.497l-0.768,3.668c-0.177,0.87-0.354,0.933-1.062,0.933h-5.847v15.043c0,1.99,0,3.793,2.008,3.793
	c2.362,0,3.839-1.182,4.665-1.182c0.236,0,0.414,0.125,0.473,0.373L179.587,43.205z"/>
<path d="M205.104,44.136c0,0.684-0.118,0.871-0.827,0.871h-5.846c-0.709,0-0.827-0.188-0.827-0.871V24.99
	c0-2.362-0.295-5.222-3.307-5.222c-2.48,0-4.252,1.864-5.02,2.61v21.757c0,0.684-0.118,0.871-0.826,0.871h-5.847
	c-0.708,0-0.826-0.188-0.826-0.871V2.362c0-0.933,0.413-0.933,1.122-1.119l4.96-1.057c0.177,0,0.709-0.187,0.827-0.187
	c0.472,0,0.59,0.249,0.59,1.306v15.479c1.595-1.367,3.957-3.543,8.149-3.543c6.26,0,7.677,4.413,7.677,9.821V44.136z"/>
<path d="M215.375,46.064c-3.012,0-5.609-2.611-5.609-5.906s2.598-5.906,5.609-5.906c3.071,0,5.61,2.611,5.61,5.906
	S218.446,46.064,215.375,46.064z"/>
<path d="M244.824,42.148c0.059,0.186,0.177,0.434,0.177,0.621c0,1.492-4.783,3.295-8.326,3.295c-8.208,0-13.109-5.285-13.109-15.791
	c0-10.504,5.02-17.032,13.759-17.032c3.189,0,8.386,1.864,8.386,3.792c0,0.187-0.118,0.373-0.177,0.56l-2.186,4.04
	c-0.118,0.125-0.236,0.312-0.413,0.312c-0.591,0-2.539-2.487-5.61-2.487c-4.015,0-5.787,3.232-5.787,10.382
	c0,6.838,1.536,10.008,6.083,10.008c3.012,0,4.192-2.113,5.255-2.113c0.178,0,0.296,0.125,0.414,0.311L244.824,42.148z"/>
<path d="M258.726,46.064c-7.972,0-12.813-6.402-12.813-16.412c0-10.008,4.842-16.411,12.813-16.411
	c7.913,0,12.814,6.402,12.814,16.411C271.541,39.662,266.699,46.064,258.726,46.064z M263.569,29.652
	c0-5.781-0.768-10.195-4.843-10.195c-4.074,0-4.842,4.414-4.842,10.195c0,5.781,0.709,10.195,4.842,10.195
	C262.86,39.847,263.569,35.496,263.569,29.652z"/>
<path d="M313.22,44.136c0,0.684-0.118,0.871-0.826,0.871h-5.847c-0.708,0-0.826-0.188-0.826-0.871V24.99
	c0-2.362-0.236-5.222-2.48-5.222c-2.48,0-4.429,1.803-5.196,2.548v21.82c0,0.684-0.118,0.871-0.827,0.871h-5.846
	c-0.709,0-0.827-0.188-0.827-0.871V24.99c0-2.362-0.236-5.222-2.479-5.222c-2.48,0-4.43,1.803-5.197,2.548v21.82
	c0,0.684-0.118,0.871-0.826,0.871h-5.847c-0.708,0-0.826-0.188-0.826-0.871V25.363c0-8.766-1.122-8.269-1.122-9.698
	c0-0.311,0.236-0.56,0.649-0.684l4.488-1.554c0.354-0.125,0.649-0.187,0.886-0.187c0.768,0,1.239,1.367,1.89,4.289
	c1.771-1.616,4.369-4.289,9.034-4.289c2.54,0,5.315,1.678,6.023,4.289c1.771-1.616,4.311-4.289,9.153-4.289
	c5.551,0,6.85,4.413,6.85,9.821V44.136z"/>
<g>
	<polygon fill="#F8981D" stroke="#FFFFFF" stroke-width="2.1774" points="28.334,53.952 3.753,46.27 3.753,14.008 28.334,21.69 	"/>
	<polygon fill="#F8981D" stroke="#FFFFFF" stroke-width="2.1774" points="52.915,46.27 28.334,53.952 28.334,21.69 52.915,14.008
		"/>
	<polygon fill="#F8981D" stroke="#FFFFFF" stroke-width="2.1774" points="28.334,6.79 52.915,14.008 28.334,21.69 3.753,14.008 	"/>
</g>
</svg>
